<svg xmlns="http://www.w3.org/2000/svg" height="300" width="1200" id="profile-image" version="1.1">

    <g transform="translate(54.54545454545455, 45.32774353027344)">
        <g>
            <g transform="scale(1.011556943409633)">
                <path d="m 161.80301,72.55464 0,30.96412 c -0.009,5.13391 0.78978,18.01176 -7.66982,21.44426 -10.82593,4.3946 -18.71239,2.97526 -29.67819,3.14744 l -37.344964,0 0,-80.13269 37.398934,0 c 10.96504,0.17255 18.81881,-1.24359 29.64854,3.15078 8.45885,3.43204 7.63638,16.29514 7.6455,21.42609 z m 4.20434,101.27417 c 22.67956,0 47.41379,1.78455 63.62379,-5.72483 16.36052,-7.51232 19.22929,-27.37693 19.23765,-37.7131 l 0.0327,-84.25113 c -0.009,-10.33564 -2.8741,-30.2004 -19.23461,-37.71288 -16.21,-7.50943 -40.96475,-5.99523 -63.64736,-5.99523 l -166.019513,0 0,171.40906 166.007353,-0.0119"
                      fill="#FFED00"/>
                <path d="m 298.10616,173.83772 0.003,-171.40608 87.17524,0 -0.0114,125.66399 113.71481,0 -0.003,45.74209 -200.87865,0"
                      fill="#FFED00"/>
                <path d="m 625.43881,32.74226 37.68323,0 c 11.93649,0 21.08783,-0.90837 29.21754,2.71447 9.93884,4.42402 8.59035,12.03455 8.59035,16.01008 0,3.86608 0.9859,12.10601 -8.59035,16.13552 -8.63749,3.63727 -14.93829,2.63388 -29.21754,2.63388 l -37.68323,0 z m -87.1874,141.09546 0,-171.39392 164.68909,0 c 19.04457,0.23717 40.55732,-1.47543 55.95626,5.41297 17.53341,7.85073 27.05037,16.86829 27.05037,35.64909 l -0.12162,4.62089 c 0,14.66768 -6.40799,22.28734 -19.20876,30.17076 -12.63735,7.88646 -28.24076,9.01147 -58.05577,9.01147 l 35.69698,0 c 11.33979,0 21.06655,1.89807 29.16965,5.68965 8.26273,3.72013 12.3979,13.80713 12.3979,19.01235 l 0,61.82674 -87.11975,0 0.0122,-54.26395 c 0,-5.20522 0.38919,-13.67957 -7.29583,-16.01936 -8.42085,-2.56251 -13.72663,-1.82616 -27.22521,-2.0726 l -38.76111,0 0,72.35591 -87.18436,0"
                      fill-rule="evenodd" fill="#FFED00"/>
                <path d="m 953.46701,70.23317 124.45029,0 0,65.55593 c 0,12.64327 -8.7645,29.55937 -26.9242,34.33996 -18.2814,4.8073 -36.0307,3.70866 -55.96919,3.70866 l -83.12903,0 c -27.5399,0.38898 -51.08147,2.33387 -65.33411,-7.17086 -10.71799,-7.14411 -17.70368,-18.35619 -17.54405,-30.87776 l 0,-95.27592 C 828.82668,27.29661 836.64093,17.68235 846.75081,9.71835 859.09549,-5e-5 884.71985,2.43164 911.91009,2.43164 l 83.10622,0 c 32.81529,0 54.45649,0.0867 66.51989,8.34103 18.4638,12.6343 16.8751,37.39817 16.8751,37.39817 l -83.53179,0 c -2.6377,-12.36673 -10.0111,-15.59429 -26.8862,-15.59429 -10.5432,0 -11.1437,-0.003 -26.77219,-0.003 -18.28899,-0.18167 -25.14546,5.79608 -25.03144,16.1644 l 0,75.93116 c 0,9.13948 1.38346,13.16883 8.83284,16.62215 5.83028,2.80895 15.76532,2.34276 27.11419,2.34276 3.5879,0 12.6716,0.0179 21.17,0.0179 19.9917,0 21.7248,-10.4698 21.7248,-21.90452 l 0,-20.27737 -41.5645,0 0,-31.23678"
                      fill="#FFED00"/>
            </g>
        </g>
    </g>
</svg>
